<?xml version="1.0" encoding="UTF-8" standalone="no"?>
<!-- Created with Inkscape (http://www.inkscape.org/) -->
<svg width="105.83334mm" height="60.854168mm" viewBox="0 0 105.83334 60.854168" version="1.1" id="svg5" inkscape:version="1.1 (c68e22c387, 2021-05-23)" sodipodi:docname="gobierno de xioma.svg" xmlns:inkscape="http://www.inkscape.org/namespaces/inkscape" xmlns:sodipodi="http://sodipodi.sourceforge.net/DTD/sodipodi-0.dtd" xmlns="http://www.w3.org/2000/svg" xmlns:svg="http://www.w3.org/2000/svg">
  <sodipodi:namedview id="namedview7" pagecolor="#ffffff" bordercolor="#666666" borderopacity="1.0" inkscape:pageshadow="2" inkscape:pageopacity="0.0" inkscape:pagecheckerboard="0" inkscape:document-units="mm" showgrid="false" inkscape:zoom="0.70710678" inkscape:cx="277.89296" inkscape:cy="7.7781746" inkscape:window-width="1440" inkscape:window-height="837" inkscape:window-x="-8" inkscape:window-y="-8" inkscape:window-maximized="1" inkscape:current-layer="layer1" inkscape:snap-bbox="true" inkscape:bbox-paths="true" inkscape:bbox-nodes="true" inkscape:snap-bbox-edge-midpoints="true" inkscape:snap-bbox-midpoints="true" inkscape:object-paths="true" inkscape:snap-intersection-paths="true" inkscape:snap-smooth-nodes="true" inkscape:snap-midpoints="true" showguides="true" inkscape:guide-bbox="true" inkscape:snap-global="true" inkscape:snap-object-midpoints="true" inkscape:snap-center="true" inkscape:snap-text-baseline="true" borderlayer="true" fit-margin-top="0" fit-margin-left="0" fit-margin-right="0" fit-margin-bottom="0"/>
  <defs id="defs2"/>
  <g inkscape:label="Capa 1" inkscape:groupmode="layer" id="layer1" transform="translate(-126.20667,-53.639076)">
    <g id="g85722">
      <path id="rect14938" style="fill:#5dbdd5;fill-opacity:1;stroke:none;stroke-width:1.02047;stroke-linecap:round;stroke-linejoin:round;stroke-miterlimit:4;stroke-dasharray:none" d="M 29.423828 137.13672 L 29.423828 177.96094 L 39.328125 177.96094 L 39.328125 161.54688 L 58.853516 161.54688 L 58.853516 177.96094 L 68.757812 177.96094 L 68.757812 137.13672 L 58.853516 137.13672 L 58.853516 152.91406 L 39.328125 152.91406 L 39.328125 137.13672 L 29.423828 137.13672 z " transform="matrix(0.26458333,0,0,0.26458333,126.20667,53.639076)"/>
      <path id="rect15022-1" style="fill:#5dbdd5;fill-opacity:1;stroke:none;stroke-width:1.02047;stroke-linecap:round;stroke-linejoin:round;stroke-miterlimit:4;stroke-dasharray:none" d="m 310.61328,137.13672 -15.44336,40.82422 h 9.9043 l 2.80469,-7.41211 h 17.56445 l 2.80469,7.41211 h 9.90429 l -15.44336,-40.82422 z m 6.04688,10.19531 5.96093,15.75391 h -11.91992 z" transform="matrix(0.26458333,0,0,0.26458333,126.20667,53.639076)" sodipodi:nodetypes="ccccccccccccc"/>
      <path id="rect15022-4" style="fill:#5dbdd5;fill-opacity:1;stroke-width:1.02047;stroke-linecap:round;stroke-linejoin:round" d="M 256.48047 137.13672 L 256.48047 177.96094 L 266.38477 177.96094 L 266.38477 162.90625 L 268.38672 162.90625 L 268.36523 162.92383 C 271.70978 165.6324 274.18335 168.93147 275.47266 170.61719 C 277.83441 173.70508 280.09357 176.43208 283.45508 177.41797 C 286.81655 178.40382 290.51858 177.61355 293.61719 176.88867 L 292.86914 168.77344 C 289.17269 170.4784 286.82167 169.64198 285.94531 168.76562 C 285.48618 168.3065 284.80024 167.95137 282.81641 165.29883 L 280.74414 162.52734 C 286.63177 161.4994 291.51031 158.2292 291.61133 150.86328 C 291.73831 141.60731 284.21641 137.1375 276.79492 137.13672 L 266.38477 137.13672 L 256.48047 137.13672 z M 266.38477 145.76953 L 275.80469 145.76953 C 279.91084 145.76941 281.34236 148.60887 281.34766 150.86328 C 281.35144 153.11769 279.91043 155.89466 275.80469 155.89453 L 266.38477 155.89453 L 266.38477 145.76953 z " transform="matrix(0.26458333,0,0,0.26458333,126.20667,53.639076)"/>
      <path id="path15126" style="fill:#5dbdd5;fill-opacity:1;stroke:none;stroke-width:0.269999;stroke-linecap:round;stroke-linejoin:round;stroke-miterlimit:4;stroke-dasharray:none" d="m 151.38185,89.725527 a 5.5840958,5.5840958 0 0 0 -5.58396,5.584388 5.5840958,5.5840958 0 0 0 5.58396,5.583955 5.5840958,5.5840958 0 0 0 5.58396,-5.583955 5.5840958,5.5840958 0 0 0 -5.58396,-5.584388 z m 0,2.620805 a 2.9634939,2.9634939 0 0 1 2.96358,2.963583 2.9634939,2.9634939 0 0 1 -2.96358,2.963159 2.9634939,2.9634939 0 0 1 -2.96358,-2.963159 2.9634939,2.9634939 0 0 1 2.96358,-2.963583 z"/>
      <path id="rect15314" style="fill:#5dbdd5;fill-opacity:1;stroke-width:1.02047;stroke-linecap:round;stroke-linejoin:round" d="m 121.41211,137.13672 v 40.82422 h 9.9043 v -25.22266 l 21.16406,25.22266 h 8.30273 v -40.82422 h -9.90625 v 25.22266 l -21.16211,-25.22266 z" transform="matrix(0.26458333,0,0,0.26458333,126.20667,53.639076)" sodipodi:nodetypes="ccccccccccc"/>
      <path id="path16324" style="fill:#5dbdd5;fill-opacity:1;stroke:none;stroke-width:1.02047;stroke-linecap:round;stroke-linejoin:round;stroke-miterlimit:4;stroke-dasharray:none" d="M 167.40625 137.13672 L 167.40625 177.96094 L 177.31055 177.96094 L 185.59375 177.96094 C 197.24944 177.96064 206.90267 171.22864 206.69922 157.49609 C 206.49588 143.76352 197.25008 137.13699 185.59375 137.13672 L 177.31055 137.13672 L 167.40625 137.13672 z M 177.31055 145.83398 L 185.59375 145.83398 C 191.77993 145.8338 196.77995 150.78821 196.79492 157.49609 C 196.81004 164.20397 191.77929 169.26386 185.59375 169.26367 L 177.31055 169.26367 L 177.31055 145.83398 z " transform="matrix(0.26458333,0,0,0.26458333,126.20667,53.639076)"/>
      <rect style="fill:#5dbdd5;fill-opacity:1;stroke:none;stroke-width:0.269998;stroke-linecap:round;stroke-linejoin:round;stroke-miterlimit:4;stroke-dasharray:none" id="rect17293" width="2.1918542" height="2.3010006" x="173.12" y="89.923195"/>
      <path id="rect17996" style="fill:#5dbdd5;fill-opacity:1;stroke-width:1.02047;stroke-linecap:round;stroke-linejoin:round" d="m 211.75391,137.13672 v 20.98242 c 2.6e-4,11.52615 5.69806,20.87109 18.9707,20.87109 13.27189,0 18.96784,-9.34389 18.96875,-20.86914 l 0.002,-20.98437 h -9.90625 v 20.98242 c -6.4e-4,6.1168 -1.86834,11.14453 -9.06445,11.14453 -7.19611,0 -9.06381,-5.02773 -9.06445,-11.14453 v -20.98242 z" transform="matrix(0.26458333,0,0,0.26458333,126.20667,53.639076)" sodipodi:nodetypes="ccsccccsccc"/>
      <path style="color:#000000;fill:#5dbdd5;fill-opacity:1;stroke-width:1;stroke-linejoin:round;-inkscape-stroke:none" d="m 219.70824,89.696979 c -0.88247,0.02652 -1.77441,0.286606 -2.52894,0.852538 -0.75452,0.565933 -1.34812,1.157852 -1.34812,2.646856 0,1.489004 0.4932,1.988279 1.48558,2.481581 0.77119,0.383337 1.64163,0.521605 2.45783,0.796315 0.50998,0.171638 1.14272,0.152547 1.52399,0.532245 0.16636,0.165666 0.26851,0.431596 0.23497,0.663961 -0.0386,0.26722 -0.24392,0.516564 -0.47514,0.655958 -0.46261,0.278895 -1.06571,0.267913 -1.60441,0.227976 -1.01496,-0.07523 -1.55288,-0.343236 -2.92645,-0.870651 l -0.60554,2.371172 c 1.33186,0.34041 2.44522,0.88761 3.72249,0.88761 0.56232,0 1.50908,-0.0317 2.48591,-0.4446 0.97683,-0.41287 2.12465,-1.332513 2.12465,-3.017966 0,-1.685462 -0.92792,-2.144318 -1.5701,-2.489284 -0.7926,-0.425771 -1.66203,-0.775199 -2.52894,-0.94337 -0.66476,-0.12896 -1.74621,-0.32709 -1.74621,-1.005729 0,-0.812193 0.79971,-0.959689 1.41935,-0.98029 1.75775,-0.05842 2.70097,0.508559 3.46771,0.891268 l 0.79996,-2.312219 c -0.30951,-0.107159 -2.02894,-1.014271 -4.38859,-0.943371 z" id="path24970" sodipodi:nodetypes="sszsaaaaaccsszssssccs"/>
    </g>
    <g id="g76106" transform="matrix(0.8158882,0,0,0.8158882,24.685411,50.555538)" style="stroke-width:1.22566;fill:#5dbdd5;fill-opacity:1;stroke:#5dbdd5;stroke-opacity:1">
      <path id="path30084" style="opacity:1;fill:#5dbdd5;fill-opacity:1;stroke:#5dbdd5;stroke-width:0.183849;stroke-linecap:square;stroke-opacity:1" inkscape:transform-center-x="-4.5190472" inkscape:transform-center-y="1.0280584" d="m 192.08102,20.440041 -2.79292,-2.056107 -2.79292,2.056107 1.0668,-3.326854 -2.79293,-2.056103 3.45225,-10e-7 1.0668,-3.326848 1.06681,3.326854 3.45224,-3e-6 -2.79293,2.056109 z"/>
      <path id="path30084-2" style="opacity:1;fill:#5dbdd5;fill-opacity:1;stroke:#5dbdd5;stroke-width:0.183849;stroke-linecap:square;stroke-opacity:1" inkscape:transform-center-y="0.014165838" d="m 205.77386,28.83291 -1.65723,-1.218478 -1.65723,1.218478 0.63301,-1.97154 -1.65723,-1.218475 2.04845,-1e-6 0.633,-1.971536 0.63301,1.971539 2.04845,-1e-6 -1.65723,1.218479 z" inkscape:transform-center-x="3.5006045e-06"/>
      <path id="path30084-2-9" style="opacity:1;fill:#5dbdd5;fill-opacity:1;stroke:#5dbdd5;stroke-width:0.183849;stroke-linecap:square;stroke-opacity:1" inkscape:transform-center-y="0.014165838" d="m 213.44987,40.634385 -1.65723,-1.218478 -1.65723,1.218478 0.633,-1.97154 -1.65723,-1.218475 2.04846,-10e-7 0.633,-1.971536 0.63301,1.971539 2.04844,-1e-6 -1.65723,1.218479 z" inkscape:transform-center-x="3.5006045e-06"/>
      <path id="path31237" style="opacity:1;fill:#5dbdd5;fill-opacity:1;stroke:#5dbdd5;stroke-width:0.183849;stroke-linecap:square;stroke-opacity:1" inkscape:transform-center-y="0.014165838" d="m 172.80233,28.83291 1.65723,-1.218478 1.65723,1.218478 -0.633,-1.97154 1.65723,-1.218475 -2.04846,-1e-6 -0.633,-1.971536 -0.63301,1.971539 -2.04844,-1e-6 1.65723,1.218479 z" inkscape:transform-center-x="3.5006045e-06"/>
      <path id="path31239" style="opacity:1;fill:#5dbdd5;fill-opacity:1;stroke:#5dbdd5;stroke-width:0.183849;stroke-linecap:square;stroke-opacity:1" inkscape:transform-center-y="0.014165838" d="m 165.12632,40.634385 1.65724,-1.218478 1.65723,1.218478 -0.63301,-1.97154 1.65723,-1.218475 -2.04845,-10e-7 -0.63301,-1.971536 -0.633,1.971539 -2.04845,-1e-6 1.65723,1.218479 z" inkscape:transform-center-x="3.5006045e-06"/>
    </g>
    <g id="g74422" transform="matrix(0.8158882,0,0,0.8158882,124.70662,9.7883918)" style="fill:#959597;fill-opacity:1;stroke:#959597;stroke-width:1.22566;stroke-opacity:1">
      <path d="m 24.155718,118.26155 v -0.7503 c -0.347236,-0.13726 -0.703262,-0.22419 -1.050498,-0.22419 h -0.02637 c -0.84831,0 -1.58234,0.47124 -1.58234,1.64703 0,1.02023 0.575796,1.58297 1.555968,1.58297 0.417562,0 0.861497,-0.1098 1.103243,-0.19673 v -1.33592 h -0.865892 v 0.26993 c 0.360422,0.0321 0.501075,0.0457 0.501075,0.0869 v 0.73201 c -0.197793,0.064 -0.514261,0.0961 -0.734031,0.0961 -0.738425,0 -1.13401,-0.42091 -1.13401,-1.23527 0,-0.9562 0.545028,-1.31762 1.18236,-1.31762 0.224165,0 0.45712,0.0457 0.672494,0.11895 0.03956,0.0183 0.05714,0.064 0.08351,0.52613 z" style="font-size:4.39539px;line-height:1.25;font-family:'FONTSPRING DEMO - Gimbal Egyptian Extended';-inkscape-font-specification:'FONTSPRING DEMO - Gimbal Egyptian Extended';fill:#959597;fill-opacity:1;stroke:#959597;stroke-width:0.330928;stroke-miterlimit:4;stroke-dasharray:none;stroke-opacity:1" id="path7383"/>
      <path d="m 27.052021,117.28706 c -1.046103,0 -1.542782,0.75489 -1.542782,1.615 0,0.86012 0.496679,1.615 1.542782,1.615 1.050498,0 1.547177,-0.75488 1.547177,-1.615 0,-0.86011 -0.496679,-1.615 -1.547177,-1.615 z m 0,2.87315 c -0.760402,0 -1.116429,-0.59019 -1.116429,-1.25815 0,-0.66795 0.356027,-1.25814 1.116429,-1.25814 0.760403,0 1.120825,0.59019 1.120825,1.25814 0,0.66796 -0.360422,1.25815 -1.120825,1.25815 z" style="font-size:4.39539px;line-height:1.25;font-family:'FONTSPRING DEMO - Gimbal Egyptian Extended';-inkscape-font-specification:'FONTSPRING DEMO - Gimbal Egyptian Extended';fill:#959597;fill-opacity:1;stroke:#959597;stroke-width:0.330928;stroke-miterlimit:4;stroke-dasharray:none;stroke-opacity:1" id="path7385"/>
      <path d="M 48.221427,117.33739 H 47.20238 v 0.27908 c 0.158705,0.0229 0.32576,0.0457 0.32576,0.0869 v 1.52808 c 0,0.27451 0,0.53986 0.0084,0.68626 h -0.01671 c -0.05012,-0.0961 -0.112763,-0.19673 -0.196292,-0.33398 l -1.440865,-2.24636 h -0.810226 v 0.27908 c 0.158704,0.0229 0.325761,0.0457 0.325761,0.0869 v 2.39276 c 0,0.0412 -0.167057,0.0686 -0.325761,0.0915 v 0.27908 h 1.023223 v -0.27908 c -0.1671,-0.0229 -0.32998,-0.0503 -0.32998,-0.0915 v -1.63329 c 0,-0.29281 0,-0.48039 -0.0084,-0.62679 h 0.02088 c 0.071,0.13267 0.167056,0.28823 0.250584,0.43005 l 1.394926,2.20062 h 0.471935 v -2.75877 c 0,-0.0458 0.167057,-0.0686 0.325761,-0.0915 z" style="font-size:4.39539px;line-height:1.25;font-family:'FONTSPRING DEMO - Gimbal Egyptian Extended';-inkscape-font-specification:'FONTSPRING DEMO - Gimbal Egyptian Extended';fill:#959597;fill-opacity:1;stroke:#959597;stroke-width:0.330928;stroke-miterlimit:4;stroke-dasharray:none;stroke-opacity:1" id="path7395"/>
      <path d="m 50.926586,117.28706 c -1.046103,0 -1.542782,0.75489 -1.542782,1.615 0,0.86012 0.496679,1.615 1.542782,1.615 1.050498,0 1.547177,-0.75488 1.547177,-1.615 0,-0.86011 -0.496679,-1.615 -1.547177,-1.615 z m 0,2.87315 c -0.760403,0 -1.116429,-0.59019 -1.116429,-1.25815 0,-0.66795 0.356026,-1.25814 1.116429,-1.25814 0.760402,0 1.120824,0.59019 1.120824,1.25814 0,0.66796 -0.360422,1.25815 -1.120824,1.25815 z" style="font-size:4.39539px;line-height:1.25;font-family:'FONTSPRING DEMO - Gimbal Egyptian Extended';-inkscape-font-specification:'FONTSPRING DEMO - Gimbal Egyptian Extended';fill:#959597;fill-opacity:1;stroke:#959597;stroke-width:0.330928;stroke-miterlimit:4;stroke-dasharray:none;stroke-opacity:1" id="path7397"/>
      <path d="m 56.584084,120.46674 h 1.582097 c 0.883992,0 1.317726,-0.78234 1.317726,-1.5601 0,-0.78692 -0.433734,-1.56925 -1.317726,-1.56925 h -1.582097 v 0.27908 c 0.15697,0.0229 0.322202,0.0457 0.322202,0.0869 v 2.39734 c 0,0.0412 -0.165232,0.064 -0.322202,0.0869 z m 0.718759,-2.80452 h 0.830291 c 0.619621,0 0.945954,0.6039 0.945954,1.23527 0,0.62221 -0.305679,1.24441 -0.945954,1.24441 h -0.830291 z" style="font-size:4.39539px;line-height:1.25;font-family:'FONTSPRING DEMO - Gimbal Egyptian Extended';-inkscape-font-specification:'FONTSPRING DEMO - Gimbal Egyptian Extended';fill:#959597;fill-opacity:1;stroke:#959597;stroke-width:0.330928;stroke-miterlimit:4;stroke-dasharray:none;stroke-opacity:1" id="path7399"/>
      <path d="m 80.810201,120.18766 c -0.226692,-0.0321 -0.278394,-0.0594 -0.298279,-0.0915 l -0.425545,-0.78691 -0.09545,-0.17385 c 0.365888,-0.0961 0.632352,-0.45293 0.632352,-0.83724 0,-0.55816 -0.357935,-0.96076 -0.902792,-0.96076 h -1.559006 v 0.27908 c 0.151128,0.0229 0.310211,0.0457 0.310211,0.0869 v 2.39734 c 0,0.0412 -0.159083,0.064 -0.310211,0.0869 v 0.27908 h 1.006195 v -0.27908 c -0.155105,-0.0229 -0.314187,-0.0458 -0.314187,-0.0869 v -0.89214 h 0.743709 l 0.680077,1.25815 H 80.8102 Z m -1.956711,-1.3039 v -1.22154 h 0.787456 c 0.385775,0 0.584628,0.30196 0.584628,0.61306 0,0.3111 -0.198853,0.60848 -0.584628,0.60848 z" style="font-size:4.39539px;line-height:1.25;font-family:'FONTSPRING DEMO - Gimbal Egyptian Extended';-inkscape-font-specification:'FONTSPRING DEMO - Gimbal Egyptian Extended';fill:#959597;fill-opacity:1;stroke:#959597;stroke-width:0.330928;stroke-miterlimit:4;stroke-dasharray:none;stroke-opacity:1" id="path7407"/>
      <path d="m 86.102342,120.46674 h 1.017257 v -0.27908 c -0.160832,-0.0229 -0.317642,-0.0503 -0.317642,-0.0915 v -0.78233 h 0.816218 c 0.534763,0 0.920757,-0.40718 0.920757,-0.98822 0,-0.59933 -0.406098,-0.98821 -0.912716,-0.98821 h -1.523874 v 0.27908 c 0.15279,0.0229 0.31362,0.0457 0.31362,0.0869 v 2.39734 c 0,0.0412 -0.16083,0.064 -0.31362,0.0869 z m 0.699615,-1.47775 v -1.32677 h 0.735802 c 0.36187,0 0.607137,0.27908 0.607137,0.66796 0,0.39803 -0.253308,0.65881 -0.611158,0.65881 z" style="font-size:4.39539px;line-height:1.25;font-family:'FONTSPRING DEMO - Gimbal Egyptian Extended';-inkscape-font-specification:'FONTSPRING DEMO - Gimbal Egyptian Extended';fill:#959597;fill-opacity:1;stroke:#959597;stroke-width:0.330928;stroke-miterlimit:4;stroke-dasharray:none;stroke-opacity:1" id="path7411"/>
      <path d="m 92.769823,117.33739 h -1.04291 v 0.27908 c 0.1611,0.0229 0.33068,0.0457 0.33068,0.0915 v 1.5235 c 0,0.59475 -0.398511,0.91959 -0.822458,0.91959 -0.419708,0 -0.813979,-0.32484 -0.813979,-0.91959 v -1.52808 c 0,-0.0412 0.169579,-0.064 0.330679,-0.0869 v -0.27908 h -1.068347 v 0.27908 c 0.156861,0.0229 0.330679,0.0457 0.330679,0.0869 v 1.50063 c 0,0.86926 0.593526,1.31304 1.208249,1.31304 0.610484,0 1.216729,-0.44378 1.216729,-1.30847 v -1.5052 c 0,-0.0412 0.169579,-0.064 0.330678,-0.0869 z" style="font-size:4.39539px;line-height:1.25;font-family:'FONTSPRING DEMO - Gimbal Egyptian Extended';-inkscape-font-specification:'FONTSPRING DEMO - Gimbal Egyptian Extended';fill:#959597;fill-opacity:1;stroke:#959597;stroke-width:0.330928;stroke-miterlimit:4;stroke-dasharray:none;stroke-opacity:1" id="path7413"/>
      <path d="m 94.576811,120.46674 h 1.610159 c 0.63927,0 0.966895,-0.44379 0.966895,-0.88757 0,-0.35685 -0.207763,-0.70456 -0.60331,-0.78233 v -0.0229 c 0.271689,-0.1098 0.415524,-0.38431 0.415524,-0.66339 0,-0.4209 -0.303652,-0.77318 -0.847031,-0.77318 h -1.542237 v 0.27908 c 0.151827,0.0229 0.311644,0.0457 0.311644,0.0869 v 2.39734 c 0,0.0412 -0.163813,0.064 -0.311644,0.0869 z m 0.695206,-0.32484 v -1.17122 h 0.855022 c 0.395548,0 0.619292,0.27451 0.619292,0.59019 0,0.30653 -0.215753,0.58103 -0.60331,0.58103 z m 0,-1.47774 v -1.00194 h 0.811072 c 0.311643,0 0.487443,0.23333 0.487443,0.49868 0,0.26078 -0.179795,0.50326 -0.487443,0.50326 z" style="font-size:4.39539px;line-height:1.25;font-family:'FONTSPRING DEMO - Gimbal Egyptian Extended';-inkscape-font-specification:'FONTSPRING DEMO - Gimbal Egyptian Extended';fill:#959597;fill-opacity:1;stroke:#959597;stroke-width:0.330928;stroke-miterlimit:4;stroke-dasharray:none;stroke-opacity:1" id="path7415"/>
      <path d="m 100.45184,119.75417 c -0.0352,0.51699 -0.0439,0.38773 -0.0879,0.38773 h -1.058675 v -2.43393 c 0.0044,-0.0412 0.175816,-0.0686 0.347236,-0.0915 v -0.27908 h -1.112034 v 0.27908 c 0.167025,0.0229 0.342841,0.0457 0.342841,0.0869 v 2.39734 c 0,0.0412 -0.175816,0.064 -0.342841,0.0869 v 0.27908 h 2.192683 v -0.71257 z" style="font-size:4.39539px;line-height:1.25;font-family:'FONTSPRING DEMO - Gimbal Egyptian Extended';-inkscape-font-specification:'FONTSPRING DEMO - Gimbal Egyptian Extended';fill:#959597;fill-opacity:1;stroke:#959597;stroke-width:0.330928;stroke-miterlimit:4;stroke-dasharray:none;stroke-opacity:1" id="path7417" sodipodi:nodetypes="csccccccssccccc"/>
      <path d="m 102.00545,120.46674 h 1.11204 v -0.27908 c -0.17582,-0.0229 -0.34724,-0.0503 -0.34724,-0.0915 v -2.39276 c 0,-0.0412 0.18021,-0.064 0.34724,-0.0869 v -0.27909 h -1.11204 v 0.27908 c 0.16703,0.0229 0.34284,0.0457 0.34284,0.0869 v 2.39734 c 0,0.0412 -0.17581,0.064 -0.34284,0.0869 z" style="font-size:4.39539px;line-height:1.25;font-family:'FONTSPRING DEMO - Gimbal Egyptian Extended';-inkscape-font-specification:'FONTSPRING DEMO - Gimbal Egyptian Extended';fill:#959597;fill-opacity:1;stroke:#959597;stroke-width:0.330928;stroke-miterlimit:4;stroke-dasharray:none;stroke-opacity:1" id="path7419"/>
      <path d="m 107.41418,118.26155 v -0.7503 c -0.22416,-0.1098 -0.59338,-0.22419 -1.00654,-0.22419 -0.83952,0 -1.5252,0.46666 -1.5252,1.615 0,1.20782 0.5939,1.56997 1.38946,1.56997 0.35163,0 0.71645,-0.13146 1.01534,-0.24586 l -0.0791,-0.32483 c -0.24175,0.0823 -0.5802,0.22755 -0.90545,0.22755 -0.58899,0 -0.99388,-0.25691 -0.99388,-1.22683 0,-0.99279 0.55821,-1.28102 1.10763,-1.28102 0.22417,0 0.44833,0.0503 0.61975,0.11438 0.0396,0.0137 0.0571,0.0594 0.0835,0.52613 z" style="font-size:4.39539px;line-height:1.25;font-family:'FONTSPRING DEMO - Gimbal Egyptian Extended';-inkscape-font-specification:'FONTSPRING DEMO - Gimbal Egyptian Extended';fill:#959597;fill-opacity:1;stroke:#959597;stroke-width:0.330928;stroke-miterlimit:4;stroke-dasharray:none;stroke-opacity:1" id="path7421" sodipodi:nodetypes="ccsssccsssccc"/>
      <path d="m 108.5951,120.46674 h 1.09445 v -0.27908 c -0.16263,-0.0229 -0.34284,-0.0458 -0.34284,-0.0869 0,-0.009 0.004,-0.0229 0.0132,-0.0412 l 0.19096,-0.51504 1.35337,-1e-5 0.18745,0.51505 c 0.004,0.0183 0.0132,0.0321 0.0132,0.0412 0,0.0412 -0.1846,0.064 -0.34723,0.0869 v 0.27908 h 1.1384 v -0.27908 c -0.17142,-0.0229 -0.32086,-0.0503 -0.34284,-0.0915 l -1.08566,-2.75876 -0.44981,-1e-5 -1.07499,2.74049 c -0.0264,0.0594 -0.17142,0.0823 -0.34724,0.1098 z m 2.20803,-1.21961 -1.15557,1e-5 0.4112,-1.07251 c 0.0747,-0.20588 0.11868,-0.34313 0.15384,-0.44379 h 0.022 c 0.0352,0.11438 0.0791,0.25621 0.15823,0.47124 z" style="font-size:4.39539px;line-height:1.25;font-family:'FONTSPRING DEMO - Gimbal Egyptian Extended';-inkscape-font-specification:'FONTSPRING DEMO - Gimbal Egyptian Extended';fill:#959597;fill-opacity:1;stroke:#959597;stroke-width:0.330928;stroke-miterlimit:4;stroke-dasharray:none;stroke-opacity:1" id="path7423" sodipodi:nodetypes="cccsccccsccccccccccccccccc"/>
      <path d="m 70.817522,120.46674 h 1.09445 v -0.27908 c -0.16263,-0.0229 -0.34284,-0.0458 -0.34284,-0.0869 0,-0.009 0.004,-0.0229 0.0132,-0.0412 l 0.19096,-0.51504 1.35337,-1e-5 0.18745,0.51505 c 0.004,0.0183 0.0132,0.0321 0.0132,0.0412 0,0.0412 -0.1846,0.064 -0.34723,0.0869 v 0.27908 h 1.1384 v -0.27908 c -0.17142,-0.0229 -0.32086,-0.0503 -0.34284,-0.0915 l -1.08566,-2.75876 -0.44981,-1e-5 -1.07499,2.74049 c -0.0264,0.0594 -0.17142,0.0823 -0.34724,0.1098 z m 2.20803,-1.21961 -1.15557,1e-5 0.4112,-1.07251 c 0.0747,-0.20588 0.11868,-0.34313 0.15384,-0.44379 h 0.022 c 0.0352,0.11438 0.0791,0.25621 0.15823,0.47124 z" style="font-size:4.39539px;line-height:1.25;font-family:'FONTSPRING DEMO - Gimbal Egyptian Extended';-inkscape-font-specification:'FONTSPRING DEMO - Gimbal Egyptian Extended';fill:#959597;fill-opacity:1;stroke:#959597;stroke-width:0.330928;stroke-miterlimit:4;stroke-dasharray:none;stroke-opacity:1" id="path13369" sodipodi:nodetypes="cccsccccsccccccccccccccccc"/>
      <path d="m 69.105729,119.75417 c -0.0352,0.51699 -0.0439,0.38773 -0.0879,0.38773 h -1.058672 v -2.43393 c 0.0044,-0.0412 0.175816,-0.0686 0.347236,-0.0915 v -0.27908 h -1.112034 v 0.27908 c 0.167025,0.0229 0.342841,0.0457 0.342841,0.0869 v 2.39734 c 0,0.0412 -0.175816,0.064 -0.342841,0.0869 v 0.27908 h 2.19268 v -0.71257 z" style="font-size:4.39539px;line-height:1.25;font-family:'FONTSPRING DEMO - Gimbal Egyptian Extended';-inkscape-font-specification:'FONTSPRING DEMO - Gimbal Egyptian Extended';fill:#959597;fill-opacity:1;stroke:#959597;stroke-width:0.330928;stroke-miterlimit:4;stroke-dasharray:none;stroke-opacity:1" id="path13371" sodipodi:nodetypes="csccccccssccccc"/>
      <path d="m 61.014059,120.46674 h 2.264225 v -0.92417 h -0.240715 c -0.02633,0.51241 -0.0376,0.59933 -0.07146,0.59933 h -1.297604 v -1.10258 h 1.300002 l -8e-6,-0.34314 h -1.300001 v -1.03396 h 1.263753 c 0.03008,0 0.04514,0.10065 0.07523,0.59933 h 0.240714 v -0.92416 h -2.234134 v 0.27908 c 0.142924,0.0229 0.293371,0.0457 0.293371,0.0869 v 2.39734 c 0,0.0412 -0.150447,0.064 -0.293371,0.0869 z" style="font-size:4.39539px;line-height:1.25;font-family:'FONTSPRING DEMO - Gimbal Egyptian Extended';-inkscape-font-specification:'FONTSPRING DEMO - Gimbal Egyptian Extended';fill:#959597;fill-opacity:1;stroke:#959597;stroke-width:0.330928;stroke-miterlimit:4;stroke-dasharray:none;stroke-opacity:1" id="path13453" sodipodi:nodetypes="ccccsccccccscccccsscc"/>
      <path d="m 82.222855,120.46674 h 2.264225 v -0.92417 h -0.240715 c -0.02633,0.51241 -0.0376,0.59933 -0.07146,0.59933 h -1.297604 v -1.10258 h 1.300002 l -8e-6,-0.34314 h -1.300001 v -1.03396 h 1.263753 c 0.03008,0 0.04514,0.10065 0.07523,0.59933 h 0.240714 v -0.92416 h -2.234134 v 0.27908 c 0.142924,0.0229 0.293371,0.0457 0.293371,0.0869 v 2.39734 c 0,0.0412 -0.150447,0.064 -0.293371,0.0869 z" style="font-size:4.39539px;line-height:1.25;font-family:'FONTSPRING DEMO - Gimbal Egyptian Extended';-inkscape-font-specification:'FONTSPRING DEMO - Gimbal Egyptian Extended';fill:#959597;fill-opacity:1;stroke:#959597;stroke-width:0.330928;stroke-miterlimit:4;stroke-dasharray:none;stroke-opacity:1" id="path13535" sodipodi:nodetypes="ccccsccccccscccccsscc"/>
      <path d="m 43.55753,120.18766 c -0.226692,-0.0321 -0.278394,-0.0594 -0.298279,-0.0915 l -0.425545,-0.78691 -0.09545,-0.17385 c 0.365888,-0.0961 0.632352,-0.45293 0.632352,-0.83724 0,-0.55816 -0.357935,-0.96076 -0.902792,-0.96076 H 40.90881 v 0.27908 c 0.151128,0.0229 0.310211,0.0457 0.310211,0.0869 v 2.39734 c 0,0.0412 -0.159083,0.064 -0.310211,0.0869 v 0.27908 h 1.006195 v -0.27908 c -0.155105,-0.0229 -0.314187,-0.0458 -0.314187,-0.0869 v -0.89214 h 0.743709 l 0.680077,1.25815 h 0.532925 z m -1.956711,-1.3039 v -1.22154 h 0.787456 c 0.385775,0 0.584628,0.30196 0.584628,0.61306 0,0.3111 -0.198853,0.60848 -0.584628,0.60848 z" style="font-size:4.39539px;line-height:1.25;font-family:'FONTSPRING DEMO - Gimbal Egyptian Extended';-inkscape-font-specification:'FONTSPRING DEMO - Gimbal Egyptian Extended';fill:#959597;fill-opacity:1;stroke:#959597;stroke-width:0.330928;stroke-miterlimit:4;stroke-dasharray:none;stroke-opacity:1" id="path13697"/>
      <path d="m 37.009044,120.46674 h 2.264225 v -0.92417 h -0.240715 c -0.02633,0.51241 -0.0376,0.59933 -0.07146,0.59933 H 37.66349 v -1.10258 h 1.300002 l -8e-6,-0.34314 h -1.300001 v -1.03396 h 1.263753 c 0.03008,0 0.04514,0.10065 0.07523,0.59933 h 0.240714 v -0.92416 h -2.234134 v 0.27908 c 0.142924,0.0229 0.293371,0.0457 0.293371,0.0869 v 2.39734 c 0,0.0412 -0.150447,0.064 -0.293371,0.0869 z" style="font-size:4.39539px;line-height:1.25;font-family:'FONTSPRING DEMO - Gimbal Egyptian Extended';-inkscape-font-specification:'FONTSPRING DEMO - Gimbal Egyptian Extended';fill:#959597;fill-opacity:1;stroke:#959597;stroke-width:0.330928;stroke-miterlimit:4;stroke-dasharray:none;stroke-opacity:1" id="path13699" sodipodi:nodetypes="ccccsccccccscccccsscc"/>
      <path d="m 34.208003,120.46674 h 1.11204 v -0.27908 c -0.17582,-0.0229 -0.34724,-0.0503 -0.34724,-0.0915 v -2.39276 c 0,-0.0412 0.18021,-0.064 0.34724,-0.0869 v -0.27909 h -1.11204 v 0.27908 c 0.16703,0.0229 0.34284,0.0457 0.34284,0.0869 v 2.39734 c 0,0.0412 -0.17581,0.064 -0.34284,0.0869 z" style="font-size:4.39539px;line-height:1.25;font-family:'FONTSPRING DEMO - Gimbal Egyptian Extended';-inkscape-font-specification:'FONTSPRING DEMO - Gimbal Egyptian Extended';fill:#959597;fill-opacity:1;stroke:#959597;stroke-width:0.330928;stroke-miterlimit:4;stroke-dasharray:none;stroke-opacity:1" id="path13861"/>
      <path d="m 30.002507,120.46674 h 1.610159 c 0.63927,0 0.966895,-0.44379 0.966895,-0.88757 0,-0.35685 -0.207763,-0.70456 -0.60331,-0.78233 v -0.0229 c 0.271689,-0.1098 0.415524,-0.38431 0.415524,-0.66339 0,-0.4209 -0.303652,-0.77318 -0.847031,-0.77318 h -1.542237 v 0.27908 c 0.151827,0.0229 0.311644,0.0457 0.311644,0.0869 v 2.39734 c 0,0.0412 -0.163813,0.064 -0.311644,0.0869 z m 0.695206,-0.32484 v -1.17122 h 0.855022 c 0.395548,0 0.619292,0.27451 0.619292,0.59019 0,0.30653 -0.215753,0.58103 -0.60331,0.58103 z m 0,-1.47774 v -1.00194 h 0.811072 c 0.311643,0 0.487443,0.23333 0.487443,0.49868 0,0.26078 -0.179795,0.50326 -0.487443,0.50326 z" style="font-size:4.39539px;line-height:1.25;font-family:'FONTSPRING DEMO - Gimbal Egyptian Extended';-inkscape-font-specification:'FONTSPRING DEMO - Gimbal Egyptian Extended';fill:#959597;fill-opacity:1;stroke:#959597;stroke-width:0.330928;stroke-miterlimit:4;stroke-dasharray:none;stroke-opacity:1" id="path13863"/>
      <path style="opacity:1;fill:#959597;fill-opacity:1;stroke:none;stroke-width:1.22566;stroke-linecap:square;stroke-linejoin:miter;stroke-miterlimit:4;stroke-dasharray:none;stroke-opacity:1" d="m 90.86327,117.08365 h 0.546905 l 0.76876,-0.56754 H 91.36374 Z" id="path67434" sodipodi:nodetypes="ccccc"/>
    </g>
  </g>
</svg>